<svg width="48" height="48" viewBox="0 0 48 48" fill="none" xmlns="http://www.w3.org/2000/svg">
<path d="M24.0747 37.9467C24.6649 37.9467 25.1627 37.744 25.568 37.3387C25.9733 36.9333 26.176 36.4355 26.176 35.8453C26.176 35.2551 25.9716 34.7573 25.5627 34.352C25.1573 33.9467 24.6596 33.744 24.0693 33.744C23.4791 33.744 22.9813 33.9476 22.576 34.3547C22.1707 34.7618 21.9689 35.2596 21.9707 35.848C21.9707 36.4382 22.1733 36.936 22.5787 37.3413C22.9876 37.7467 23.4862 37.9493 24.0747 37.9493M24.008 48C20.6907 48 17.5707 47.3707 14.648 46.112C11.7271 44.8515 9.18578 43.1413 7.024 40.9813C4.86222 38.8213 3.15111 36.2827 1.89067 33.3653C0.630222 30.448 0 27.3289 0 24.008C0 20.6871 0.630222 17.5671 1.89067 14.648C3.14933 11.7271 4.85689 9.18578 7.01333 7.024C9.16978 4.86222 11.7093 3.15111 14.632 1.89067C17.5547 0.630222 20.6747 0 23.992 0C27.3093 0 30.4293 0.630222 33.352 1.89067C36.2729 3.14933 38.8142 4.85778 40.976 7.016C43.1378 9.17422 44.8489 11.7138 46.1093 14.6347C47.3698 17.5556 48 20.6747 48 23.992C48 27.3093 47.3707 30.4293 46.112 33.352C44.8533 36.2747 43.1431 38.816 40.9813 40.976C38.8196 43.136 36.2809 44.8471 33.3653 46.1093C30.4498 47.3715 27.3307 48.0018 24.008 48ZM24 45.3333C29.9556 45.3333 35 43.2667 39.1333 39.1333C43.2667 35 45.3333 29.9556 45.3333 24C45.3333 18.0444 43.2667 13 39.1333 8.86666C35 4.73333 29.9556 2.66667 24 2.66667C18.0444 2.66667 13 4.73333 8.86667 8.86666C4.73333 13 2.66667 18.0444 2.66667 24C2.66667 29.9556 4.73333 35 8.86667 39.1333C13 43.2667 18.0444 45.3333 24 45.3333ZM24.1653 12.6373C25.5164 12.6373 26.6791 13.056 27.6533 13.8933C28.6311 14.7307 29.12 15.7787 29.12 17.0373C29.12 18.0151 28.8444 18.8987 28.2933 19.688C27.7458 20.4773 27.1111 21.2053 26.3893 21.872C25.4756 22.7004 24.6711 23.6116 23.976 24.6053C23.2809 25.6009 22.8818 26.6969 22.7787 27.8933C22.7449 28.2418 22.8542 28.5333 23.1067 28.768C23.3556 29.0009 23.6489 29.1173 23.9867 29.1173C24.344 29.1173 24.6453 28.9982 24.8907 28.76C25.1342 28.52 25.2889 28.2373 25.3547 27.912C25.5324 27.0142 25.8898 26.2151 26.4267 25.5147C26.9618 24.816 27.5502 24.1547 28.192 23.5307C29.1147 22.6133 29.9333 21.6133 30.648 20.5307C31.3644 19.4498 31.7227 18.2436 31.7227 16.912C31.7227 14.9547 30.9796 13.3387 29.4933 12.064C28.0089 10.7911 26.2667 10.1547 24.2667 10.1547C22.784 10.1547 21.4036 10.5013 20.1253 11.1947C18.8489 11.888 17.8276 12.848 17.0613 14.0747C16.8871 14.3698 16.8311 14.6747 16.8933 14.9893C16.9556 15.304 17.1244 15.5431 17.4 15.7067C17.752 15.8916 18.1076 15.9342 18.4667 15.8347C18.8258 15.7351 19.1422 15.5289 19.416 15.216C20.008 14.48 20.7049 13.8667 21.5067 13.376C22.3067 12.8818 23.1929 12.6373 24.1653 12.6373Z" fill="#111D27"/>
</svg>
