<svg width="48" height="48" viewBox="0 0 48 48" fill="none" xmlns="http://www.w3.org/2000/svg">
<g clip-path="url(#clip0_13_23)">
<path d="M43.8 37.5067L43.3467 37.1067C42.0609 35.9605 40.9353 34.6465 40 33.2C38.978 31.2038 38.3659 29.0232 38.2 26.7867V20.2C38.2088 16.6875 36.9347 13.2926 34.617 10.6533C32.2993 8.01396 29.0975 6.31182 25.6133 5.86667V4.14667C25.6133 3.67458 25.4258 3.22183 25.092 2.88802C24.7582 2.5542 24.3054 2.36667 23.8333 2.36667C23.3612 2.36667 22.9085 2.5542 22.5747 2.88802C22.2409 3.22183 22.0533 3.67458 22.0533 4.14667V5.89334C18.6003 6.37057 15.4373 8.08301 13.15 10.7135C10.8628 13.3439 9.60631 16.7142 9.61333 20.2V26.7867C9.44741 29.0232 8.83538 31.2038 7.81333 33.2C6.89451 34.6431 5.78693 35.957 4.52 37.1067L4.06667 37.5067V41.2667H43.8V37.5067Z" fill="#2974FF"/>
<path d="M20.4267 42.6667C20.5436 43.5118 20.9624 44.2861 21.6057 44.8466C22.249 45.4071 23.0734 45.7158 23.9267 45.7158C24.7799 45.7158 25.6043 45.4071 26.2476 44.8466C26.8909 44.2861 27.3097 43.5118 27.4267 42.6667H20.4267Z" fill="#2974FF"/>
</g>
<defs>
<clipPath id="clip0_13_23">
<rect width="48" height="48" fill="white"/>
</clipPath>
</defs>
</svg>
