<svg width="42" height="42" viewBox="0 0 42 42" fill="none" xmlns="http://www.w3.org/2000/svg">
<path d="M25.556 2.39249e-06C25.7532 -0.000349649 25.9484 0.0381524 26.1306 0.113307C26.3129 0.188463 26.4785 0.298797 26.618 0.438002L41.468 15.288C41.7492 15.5693 41.9072 15.9508 41.9072 16.3485C41.9072 16.7463 41.7492 17.1277 41.468 17.409C40.028 18.849 38.252 19.173 36.959 19.173C36.428 19.173 35.954 19.119 35.579 19.056L26.177 28.458C26.4235 29.4554 26.5841 30.4722 26.657 31.497C26.795 33.603 26.561 36.558 24.497 38.622C24.2157 38.9032 23.8343 39.0612 23.4365 39.0612C23.0388 39.0612 22.6573 38.9032 22.376 38.622L13.889 30.138L4.34303 39.684C3.75803 40.269 0.686035 42.39 0.101035 41.805C-0.483965 41.22 1.63703 38.145 2.22203 37.563L11.768 28.017L3.28403 19.53C3.00283 19.2487 2.84485 18.8672 2.84485 18.4695C2.84485 18.0718 3.00283 17.6903 3.28403 17.409C5.34803 15.345 8.30303 15.108 10.409 15.249C11.4339 15.322 12.4506 15.4826 13.448 15.729L22.85 6.33C22.7745 5.87278 22.7344 5.4104 22.73 4.947C22.73 3.657 23.054 1.881 24.497 0.438002C24.7782 0.157595 25.159 8.67494e-05 25.556 2.39249e-06Z" fill="black"/>
</svg>
