<svg width="40" height="36" viewBox="0 0 40 36" fill="none" xmlns="http://www.w3.org/2000/svg">
<path d="M2.00001 36C1.43334 36 0.958674 35.808 0.576007 35.424C0.19334 35.04 0.00134023 34.5653 6.89654e-06 34C-0.00132644 33.4347 0.190674 32.96 0.576007 32.576C0.96134 32.192 1.43601 32 2.00001 32H38C38.5667 32 39.042 32.192 39.426 32.576C39.81 32.96 40.0013 33.4347 40 34C39.9987 34.5653 39.8067 35.0407 39.424 35.426C39.0413 35.8113 38.5667 36.0027 38 36H2.00001ZM5.00001 30C4.16667 30 3.45867 29.7087 2.87601 29.126C2.29334 28.5433 2.00134 27.8347 2.00001 27V19C2.00001 18.1667 2.29201 17.4587 2.87601 16.876C3.46001 16.2933 4.16801 16.0013 5.00001 16C5.83201 15.9987 6.54067 16.2907 7.12601 16.876C7.71134 17.4613 8.00267 18.1693 8.00001 19V27C8.00001 27.8333 7.70867 28.542 7.12601 29.126C6.54334 29.71 5.83467 30.0013 5.00001 30ZM15 30C14.1667 30 13.4587 29.7087 12.876 29.126C12.2933 28.5433 12.0013 27.8347 12 27V9C12 8.16667 12.292 7.45867 12.876 6.87601C13.46 6.29334 14.168 6.00134 15 6C15.832 5.99867 16.5407 6.29067 17.126 6.87601C17.7113 7.46134 18.0027 8.16934 18 9V27C18 27.8333 17.7087 28.542 17.126 29.126C16.5433 29.71 15.8347 30.0013 15 30ZM25 30C24.1667 30 23.4587 29.7087 22.876 29.126C22.2933 28.5433 22.0013 27.8347 22 27V15C22 14.1667 22.292 13.4587 22.876 12.876C23.46 12.2933 24.168 12.0013 25 12C25.832 11.9987 26.5407 12.2907 27.126 12.876C27.7113 13.4613 28.0027 14.1693 28 15V27C28 27.8333 27.7087 28.542 27.126 29.126C26.5433 29.71 25.8347 30.0013 25 30ZM35 30C34.1667 30 33.4587 29.7087 32.876 29.126C32.2933 28.5433 32.0013 27.8347 32 27V3C32 2.16667 32.292 1.45867 32.876 0.876004C33.46 0.293338 34.168 0.00133788 35 4.54546e-06C35.832 -0.00132879 36.5407 0.290671 37.126 0.876004C37.7113 1.46134 38.0027 2.16934 38 3V27C38 27.8333 37.7087 28.542 37.126 29.126C36.5433 29.71 35.8347 30.0013 35 30Z" fill="#2974FF"/>
</svg>
