<svg width="48" height="48" viewBox="0 0 48 48" fill="none" xmlns="http://www.w3.org/2000/svg">
<g clip-path="url(#clip0_13_18)">
<path d="M32 20C32 24.42 28.42 28 24 28C19.58 28 16 24.42 16 20C16 15.58 19.58 12 24 12C28.42 12 32 15.58 32 20Z" fill="#111D27"/>
<path fill-rule="evenodd" clip-rule="evenodd" d="M24 48C37.26 48 48 37.26 48 24C48 10.74 37.26 0 24 0C10.74 0 0 10.74 0 24C0 37.26 10.74 48 24 48ZM36.54 42.08C42.26 38.1 46 31.5 46 24C46 11.84 36.16 2 24 2C11.84 2 2 11.84 2 24C2 31.5 5.74 38.1 11.46 42.08C12.87 39.44 17.42 32 24 32C30.58 32 35.12 39.44 36.54 42.08Z" fill="#111D27"/>
</g>
<defs>
<clipPath id="clip0_13_18">
<rect width="48" height="48" fill="white"/>
</clipPath>
</defs>
</svg>
